<?xml version="1.0" encoding="UTF-8"?>
<svg version="1.1" xmlns="http://www.w3.org/2000/svg" width="524" height="522">
<path d="M0 0 C3.45885301 1.7294265 4.24351766 5.87890841 5.6875 9.3125 C18.52757953 38.91471971 37.05015005 52.57867112 66 65 C66 65.66 66 66.32 66 67 C65.30028076 67.32162109 64.60056152 67.64324219 63.87963867 67.97460938 C60.64310102 69.4708177 57.41540763 70.98526839 54.1875 72.5 C53.08728516 73.0053125 51.98707031 73.510625 50.85351562 74.03125 C41.25201048 78.56293384 33.24204342 84.37178969 25 91 C25.95519531 91.35191406 26.91039062 91.70382813 27.89453125 92.06640625 C48.65392768 99.90812605 66.20476346 113.67071346 76 134 C80.43059273 145.03579557 82.20676104 154.98509196 82.24023438 166.8527832 C82.2498259 168.90033422 82.28083162 170.94682959 82.3125 172.99414062 C82.41133153 184.97821114 80.99621496 196.65331888 75.3125 207.375 C74.96509766 208.04635986 74.61769531 208.71771973 74.25976562 209.40942383 C71.31737498 214.86146162 67.9306087 219.1855724 63 223 C62.38640625 223.47566406 61.7728125 223.95132813 61.140625 224.44140625 C55.62052472 228.26213681 49.38362471 230.09555196 43 232 C44.00417969 232.44988281 45.00835937 232.89976562 46.04296875 233.36328125 C65.4131623 242.34842265 79.57902807 256.16208644 88 276 C92.36704939 288.08858486 93.15682076 300.25951947 93.203125 312.99609375 C93.20882507 314.22481705 93.21452515 315.45354034 93.22039795 316.71949768 C93.22980472 319.30721181 93.23636463 321.89493768 93.24023438 324.48266602 C93.24996074 328.42159984 93.28103473 332.36001598 93.3125 336.29882812 C93.3190293 338.8229136 93.32428006 341.34700276 93.328125 343.87109375 C93.3404718 345.03805283 93.3528186 346.2050119 93.36553955 347.40733337 C93.34286897 355.80278892 92.77755101 364.8857046 86.8125 371.375 C86.28269531 371.98085938 85.75289062 372.58671875 85.20703125 373.2109375 C79.43870099 377.88685831 73.93889905 379.59863041 66.59960938 379.53344727 C65.80174515 379.54206284 65.00388092 379.55067841 64.18183899 379.55955505 C61.56880387 379.58208596 58.95685239 379.57550093 56.34375 379.56640625 C54.51346522 379.57164716 52.68318314 379.57792535 50.85290527 379.58518982 C47.02664431 379.59556994 43.20075582 379.59106643 39.37451172 379.57641602 C34.48528004 379.55922226 29.59722297 379.58274305 24.70812225 379.61790562 C20.93154195 379.63992478 17.15524083 379.6384274 13.37861633 379.6301403 C11.57659109 379.62932344 9.77454481 379.6361359 7.97257996 379.65091133 C-9.00397774 379.76880066 -9.00397774 379.76880066 -14.62512207 375.35850525 C-15.07883179 374.91019852 -15.5325415 374.46189178 -16 374 C-16.49270386 373.52393814 -16.98540771 373.04787628 -17.49304199 372.55738831 C-23.60191155 365.94931656 -23.28115627 358.70209972 -23.2734375 350.234375 C-23.29375234 347.87499548 -23.31460355 345.51562053 -23.3359375 343.15625 C-23.35836302 339.47066398 -23.3749434 335.78526008 -23.38085938 332.09960938 C-23.46052338 302.60799376 -28.54889488 280.35573042 -47.23828125 257.23046875 C-50.93583393 252.54908831 -50.5806486 247.78195152 -50 242 C-47.34911187 236.39235203 -43.55834042 233.3374881 -37.765625 231.16015625 C-29.37702126 228.60544511 -20.68998234 227.86594197 -12 227 C-13.44246094 225.83791016 -13.44246094 225.83791016 -14.9140625 224.65234375 C-18.72719904 221.58036646 -19.7555764 218.91465154 -20.375 214.0625 C-19.89432272 210.13696892 -18.78207008 207.73398491 -16 205 C-13.3737267 203.20284769 -10.67339633 201.56513627 -7.953125 199.9140625 C0.17423939 194.64632632 7.61142333 187.98199333 10.8125 178.625 C11.44770477 169.73213322 11.34892169 161.10635151 7.5625 152.875 C2.46851943 147.15980229 -3.95621557 142.96098452 -10.75 139.5 C-17.35308791 135.96178623 -22.24458039 130.38446251 -24.5 123.1953125 C-26.32132083 115.19857571 -26.60009283 108.51188201 -23 101 C-21.3125 98.4375 -21.3125 98.4375 -20 97 C-26.71817764 81.04881887 -50.2831298 73.31447435 -65 67 C-65 66.34 -65 65.68 -65 65 C-63.49373047 64.36384766 -63.49373047 64.36384766 -61.95703125 63.71484375 C-49.51030995 58.40261064 -37.28122427 53.00344305 -27 44 C-26.33613281 43.43023437 -25.67226563 42.86046875 -24.98828125 42.2734375 C-12.95857303 31.16545545 -5.83088961 15.03138879 0 0 Z " fill="#E083A6" transform="translate(382,38)"/>
<path d="M0 0 C16.85564445 16.31935375 26.9659056 38.78650524 27.60375977 62.24511719 C27.63686063 64.80139033 27.65788011 67.35784107 27.66845703 69.91430664 C27.67745064 71.29189638 27.68657285 72.66948528 27.69581604 74.04707336 C27.71217549 76.9137304 27.71998351 79.78027237 27.72290039 82.64697266 C27.72830773 86.30192612 27.76613822 89.95578688 27.81164455 93.61043072 C27.84150381 96.44763589 27.84862565 99.28457869 27.84962654 102.12192726 C27.85581423 104.11823452 27.88520669 106.11442707 27.91514587 108.11051941 C27.88308865 114.57287886 27.59231941 119.39899692 23.85975647 124.79548645 C19.83755292 128.77188717 15.03257871 130.19056403 9.69335938 131.6105957 C8.93673099 131.8183815 8.1801026 132.0261673 7.40054607 132.24024963 C4.87585102 132.9317003 2.34837375 133.61236448 -0.17919922 134.29321289 C-1.98705432 134.78630373 -3.79471281 135.28011593 -5.60218811 135.77459717 C-10.49126951 137.11027556 -15.38274132 138.43699489 -20.27468491 139.762146 C-25.37815343 141.1461755 -30.47948421 142.53803068 -35.58081055 143.92993164 C-36.60761586 144.21009377 -37.63442118 144.49025589 -38.6923418 144.77890778 C-40.78488446 145.34988627 -42.87741656 145.92090341 -44.96993828 146.49195862 C-48.15782956 147.36160505 -51.34599592 148.23023744 -54.53419495 149.09875488 C-69.01081335 153.04475345 -83.4724035 157.04248136 -97.92529297 161.07446289 C-99.85437798 161.61212569 -101.78347534 162.14974415 -103.71258545 162.68731689 C-111.0811505 164.74122165 -118.44965952 166.79528269 -125.81500244 168.86071777 C-130.07431289 170.05510812 -134.33503606 171.24432157 -138.59683037 172.4298172 C-140.15040887 172.86308921 -141.70342576 173.2983811 -143.25581551 173.73589325 C-145.37558384 174.3331525 -147.49720305 174.92334604 -149.61938477 175.51196289 C-150.80163132 175.84292969 -151.98387787 176.17389648 -153.20195007 176.51489258 C-160.30237997 178.18863321 -166.1974665 179.18468528 -172.70263672 175.34008789 C-176.48900938 172.08093168 -178.72428181 168.23186246 -179.70263672 163.34008789 C-179.86933958 152.96283481 -171.96116006 145.74356015 -165.83544922 138.06079102 C-165.23474609 137.29831055 -164.63404297 136.53583008 -164.01513672 135.75024414 C-163.47501953 135.07098877 -162.93490234 134.3917334 -162.37841797 133.69189453 C-161.82541016 132.91579834 -161.27240234 132.13970215 -160.70263672 131.34008789 C-159.98543457 130.39133789 -159.26823242 129.44258789 -158.52929688 128.46508789 C-155.39524011 122.81506798 -156.13944254 116.20481231 -156.16357422 109.92993164 C-156.15364627 108.51614373 -156.14169713 107.10236873 -156.12783813 105.68861389 C-156.09556818 101.97366843 -156.08509616 98.25901707 -156.08099365 94.54394531 C-156.07222654 88.62502776 -156.03606319 82.70635139 -155.98881912 76.78763008 C-155.9764615 74.74397881 -155.97697297 72.70064729 -155.97909546 70.65696716 C-155.84858358 46.69424949 -149.5663543 26.30414135 -134.70263672 7.34008789 C-134.22181641 6.70458008 -133.74099609 6.06907227 -133.24560547 5.41430664 C-119.14121574 -12.26698884 -95.49238585 -22.72156359 -73.51513672 -25.40991211 C-45.99564875 -27.28987713 -20.34193806 -18.92921242 0 0 Z " fill="#E07DAB" transform="translate(317.70263671875,305.659912109375)"/>
<path d="M0 0 C0.53496094 0.48339844 1.06992188 0.96679688 1.62109375 1.46484375 C2.39324219 2.14417969 3.16539062 2.82351562 3.9609375 3.5234375 C9.10017201 8.33791786 12.03328636 11.90591903 12.95703125 19.0703125 C13.10553959 28.88671404 10.39236277 38.14832859 3.62109375 45.46484375 C0.80375002 47.54334317 -2.19130495 49.21359334 -5.25390625 50.90234375 C-12.6065802 55.17744464 -19.06772133 59.03236787 -22.515625 67.13671875 C-23.59502845 71.29803885 -23.70916472 75.12255201 -23.69140625 79.40234375 C-23.70751953 80.17513672 -23.72363281 80.94792969 -23.74023438 81.74414062 C-23.74704755 89.80412397 -21.09806832 95.39316258 -15.671875 101.3515625 C-11.9443715 104.78696181 -7.78798886 107.51434172 -3.5625 110.2890625 C4.93796234 116.09858094 4.93796234 116.09858094 6.62109375 119.46484375 C7.39229776 123.68893846 7.48773058 127.10817144 5.12890625 130.80078125 C0.64745158 135.95166484 0.64745158 135.95166484 -2.37890625 137.46484375 C-1.48751953 137.61518066 -1.48751953 137.61518066 -0.578125 137.76855469 C2.15737019 138.23758788 4.88905982 138.72606865 7.62109375 139.21484375 C8.55566406 139.37210938 9.49023438 139.529375 10.453125 139.69140625 C17.59110847 140.98922143 23.94761803 142.65426671 29.05859375 148.02734375 C32.02239978 152.65088115 32.36582286 157.12031723 31.62109375 162.46484375 C29.97829652 166.45563897 27.24285733 169.68704825 24.56640625 173.03515625 C20.12621614 178.67373678 16.43912964 184.20255966 13.30859375 190.65234375 C12.99559326 191.27359131 12.68259277 191.89483887 12.36010742 192.53491211 C4.87868496 208.66978665 5.05007545 225.54369513 5.05859375 242.96484375 C5.05496846 246.46736026 5.04531528 249.96938699 5.01783752 253.47180176 C5.00123094 255.63213958 4.99802763 257.79263933 5.010849 259.95300293 C4.95256724 268.29748474 3.54038433 276.22230548 -1.79156494 282.9077301 C-10.38597986 291.33848201 -21.81517497 290.18202695 -32.95703125 290.09375 C-34.85650773 290.09457985 -36.75598413 290.09704362 -38.65545654 290.10105896 C-42.6194848 290.10390564 -46.58294447 290.08932107 -50.546875 290.06176758 C-55.61997574 290.02759326 -60.6920669 290.03374473 -65.76521683 290.05243015 C-69.6806883 290.06300854 -73.59592572 290.05405625 -77.51137543 290.03904533 C-79.3820196 290.03387551 -81.25268832 290.03433072 -83.12332916 290.04059029 C-85.73672457 290.04605644 -88.34868262 290.02562701 -90.96191406 289.99829102 C-92.11223618 290.00807983 -92.11223618 290.00807983 -93.28579712 290.01806641 C-98.46147858 289.92626757 -101.37841072 288.70709236 -105.37890625 285.46484375 C-110.16257287 280.28253825 -111.62547876 275.91086864 -111.65356445 268.90893555 C-111.66309647 267.59954514 -111.67262848 266.29015472 -111.68244934 264.94108582 C-111.68218762 263.5154111 -111.68124917 262.08973638 -111.6796875 260.6640625 C-111.68358125 259.18496075 -111.68791731 257.7058601 -111.69267273 256.22676086 C-111.70013038 253.12240995 -111.69985047 250.0181727 -111.69458008 246.91381836 C-111.6888369 242.98175367 -111.70559211 239.05016799 -111.72892475 235.11818218 C-111.74384867 232.05761602 -111.744508 228.99715962 -111.74141502 225.93656349 C-111.74192064 224.49003985 -111.74701143 223.04350876 -111.75722694 221.5970211 C-111.89320701 199.6184545 -106.87725364 180.37113345 -92.37890625 163.46484375 C-91.7653125 162.73910156 -91.15171875 162.01335937 -90.51953125 161.265625 C-81.55698842 151.51790213 -69.78051824 145.56437994 -57.37890625 141.46484375 C-58.27351563 141.12453125 -59.168125 140.78421875 -60.08984375 140.43359375 C-73.57995158 135.0260452 -83.79646421 127.84846241 -89.84765625 114.13671875 C-97.99957423 92.61944686 -98.72626895 66.60670718 -89.6484375 45.2578125 C-80.39608711 24.91210697 -64.46557808 11.19449695 -44.06640625 2.65234375 C-32.75024538 -1.41762419 -10.5550983 -7.70385097 0 0 Z " fill="#DD82A8" transform="translate(147.37890625,127.53515625)"/>
<path d="M0 0 C0.66 0 1.32 0 2 0 C2.69222656 1.64935547 2.69222656 1.64935547 3.3984375 3.33203125 C9.83377728 18.13868113 17.23178525 27.55520133 32 35 C32.83789062 35.433125 33.67578125 35.86625 34.5390625 36.3125 C36.34724767 37.23256595 38.17153341 38.12092953 40 39 C38.34059643 42.31880715 34.67504026 43.2186871 31.4375 44.75 C15.61462653 52.55272732 8.16892921 62.56889516 2 79 C3.73902588 78.96072388 3.73902588 78.96072388 5.51318359 78.9206543 C9.85543161 78.82947363 14.19759678 78.77250655 18.54052734 78.7253418 C20.41241737 78.70035102 22.28421135 78.66634627 24.15576172 78.62280273 C45.57799155 78.13723219 45.57799155 78.13723219 54.11669922 85.93237305 C60.3378806 92.14271032 62.31868914 99.65783178 62.40658569 108.29136658 C62.39747665 109.60784935 62.39747665 109.60784935 62.38818359 110.95092773 C62.39606903 112.37720993 62.39606903 112.37720993 62.40411377 113.83230591 C62.41722785 116.9495731 62.40860542 120.06632211 62.3984375 123.18359375 C62.40046087 125.36637977 62.40337449 127.54916513 62.40713501 129.73194885 C62.41154689 134.2970323 62.40516448 138.86193911 62.39111328 143.42700195 C62.37403245 149.25847935 62.38386308 155.08954213 62.40183067 160.9210043 C62.41270786 165.42591943 62.40920395 169.93073742 62.4014473 174.43565559 C62.39945564 176.58490105 62.40186795 178.73415551 62.40888596 180.88339043 C62.41656419 183.89572137 62.40480686 186.90739531 62.38818359 189.91967773 C62.39425629 190.79530869 62.40032898 191.67093964 62.40658569 192.57310486 C62.32526253 200.58808347 60.95268396 208.79234053 55.375 214.875 C54.76398438 215.57367188 54.15296875 216.27234375 53.5234375 216.9921875 C45.42547127 223.43546094 37.19343681 223.57944023 27.16796875 223.51757812 C25.68371903 223.52300705 24.19947472 223.53013401 22.71524048 223.53881836 C18.70689659 223.5569634 14.6989672 223.55002103 10.69061661 223.53730202 C6.48277982 223.52712834 2.27497696 223.53657977 -1.93286133 223.54284668 C-8.99729745 223.55011043 -16.06156593 223.54056892 -23.12597656 223.52148438 C-31.27688819 223.49971801 -39.4273995 223.50677029 -47.57830143 223.52879 C-54.59431144 223.5469804 -61.61020139 223.54948459 -68.62622738 223.53903532 C-72.80879713 223.53282033 -76.99117912 223.53190948 -81.17373657 223.54518127 C-85.10723095 223.55679239 -89.04021252 223.54861906 -92.97365189 223.52560425 C-94.41149675 223.52034506 -95.84938526 223.5217828 -97.28721237 223.53065491 C-106.58040964 223.5826828 -113.55234829 222.76928741 -121.26953125 217.4296875 C-127.69709449 210.95330732 -130.42283305 203.46250246 -130.54211426 194.39382935 C-130.53401733 193.49171722 -130.52592041 192.5896051 -130.51757812 191.66015625 C-130.5245874 190.67989471 -130.53159668 189.69963318 -130.53881836 188.68966675 C-130.55628525 185.48031474 -130.54481561 182.27185947 -130.53125 179.0625 C-130.53394815 176.81388176 -130.53783326 174.56526466 -130.54284668 172.31665039 C-130.54872645 167.6162601 -130.54022767 162.91617498 -130.52148438 158.21582031 C-130.49869615 152.21051233 -130.51182736 146.2059196 -130.53577423 140.20063782 C-130.55027322 135.56102167 -130.54560737 130.92157328 -130.53526306 126.2819519 C-130.53260712 124.06851109 -130.53582538 121.85505472 -130.54518127 119.64163208 C-130.55541439 116.54062938 -130.53975098 113.44076252 -130.51757812 110.33984375 C-130.52567505 109.43773163 -130.53377197 108.53561951 -130.54211426 107.60617065 C-130.42283305 98.53749754 -127.69709449 91.04669268 -121.26953125 84.5703125 C-114.08196384 79.59715914 -107.49608252 78.41059834 -98.88061523 78.45410156 C-97.80640823 78.44376389 -96.73220123 78.43342621 -95.6254425 78.42277527 C-92.10300442 78.39346541 -88.58114392 78.39185054 -85.05859375 78.390625 C-82.60521863 78.37563545 -80.15185357 78.35890668 -77.69850159 78.34051514 C-71.26239546 78.29691692 -64.82642546 78.276859 -58.39019775 78.26177979 C-51.81408668 78.24218173 -45.23812201 78.20021466 -38.66210938 78.16015625 C-25.7747893 78.08493551 -12.88749182 78.03383422 0 78 C-1.26040429 75.43680747 -2.52534608 72.87602627 -3.79296875 70.31640625 C-4.14677612 69.59569946 -4.5005835 68.87499268 -4.8651123 68.13244629 C-12.32012694 53.11524314 -23.15586334 47.07233736 -38 40 C-35.3459157 36.82270912 -32.1611315 35.56718819 -28.4375 33.875 C-13.21512286 26.55730706 -6.47079718 15.06035095 0 0 Z M-108.9375 148.3125 C-111.01805154 153.57507154 -111.50610543 157.34109887 -109.875 162.6875 C-107.29069584 167.25310402 -104.34073285 170.1061781 -100 173 C-95.07201373 174.25615336 -91.54029925 174.09378334 -86.9296875 172.15625 C-82.59137204 169.55677353 -79.5862034 165.7586102 -78 161 C-77.63173776 155.38400084 -77.78443993 151.82334011 -81 147 C-84.93851693 143.01843917 -88.54563615 140.88462559 -94.1875 140.625 C-100.50174102 140.69710389 -104.94541434 143.5477526 -108.9375 148.3125 Z M11.625 147.6875 C9.26374358 152.50083039 8.08671666 156.95393145 9.6640625 162.21484375 C11.93785182 167.17835946 14.67802208 170.5357071 19.78125 172.78515625 C24.55386107 174.36655714 28.21725246 173.99144066 32.8828125 172.19140625 C37.40645272 169.64581535 40.37333142 165.88000575 42 161 C42.58717652 155.01079945 41.30567074 150.90518884 38 146 C33.39068721 141.61553173 29.53708968 140.63207918 23.34765625 140.72265625 C18.22661395 141.32763795 15.02442358 143.84078384 11.625 147.6875 Z M-69 172 C-66.57546566 185.33493889 -63.01846076 193.04834415 -52 201 C-44.33172809 205.79266995 -35.24332363 206.95733638 -26.375 205.4375 C-16.97927142 202.85494893 -9.52406498 196.91697793 -4 189 C-0.71335763 182.92806749 0 179.08389931 0 172 C-22.77 172 -45.54 172 -69 172 Z " fill="#E69295" transform="translate(292,47)"/>
<path d="M0 0 C3.45885301 1.7294265 4.24351766 5.87890841 5.6875 9.3125 C18.52757953 38.91471971 37.05015005 52.57867112 66 65 C66 65.66 66 66.32 66 67 C65.30028076 67.32162109 64.60056152 67.64324219 63.87963867 67.97460938 C60.64310102 69.4708177 57.41540763 70.98526839 54.1875 72.5 C53.08728516 73.0053125 51.98707031 73.510625 50.85351562 74.03125 C43.24807611 77.62083797 36.6063821 81.80353675 30 87 C29.12077881 87.68489502 28.24155762 88.36979004 27.33569336 89.07543945 C15.60999062 98.73716358 7.68093487 115.22167418 2.75390625 129.3125 C2 131 2 131 0 132 C-0.235979 131.45698242 -0.47195801 130.91396484 -0.71508789 130.35449219 C-14.67472683 98.38296148 -30.58206238 80.98224091 -62.9921875 67.78125 C-63.65476562 67.5234375 -64.31734375 67.265625 -65 67 C-65 66.34 -65 65.68 -65 65 C-63.49373047 64.36384766 -63.49373047 64.36384766 -61.95703125 63.71484375 C-49.51030995 58.40261064 -37.28122427 53.00344305 -27 44 C-26.33613281 43.43023437 -25.67226563 42.86046875 -24.98828125 42.2734375 C-12.95857303 31.16545545 -5.83088961 15.03138879 0 0 Z " fill="#EC76AB" transform="translate(382,38)"/>
<path d="M0 0 C0.66 0 1.32 0 2 0 C2.46148437 1.09957031 2.92296875 2.19914062 3.3984375 3.33203125 C9.83377728 18.13868113 17.23178525 27.55520133 32 35 C32.83789062 35.433125 33.67578125 35.86625 34.5390625 36.3125 C36.34724767 37.23256595 38.17153341 38.12092953 40 39 C38.34059643 42.31880715 34.67504026 43.2186871 31.4375 44.75 C16.58594232 52.07374275 8.24664385 61.58038901 2.55859375 77.3046875 C2.37425781 77.86414063 2.18992187 78.42359375 2 79 C-1.32525101 75.93197986 -2.91620773 72.28861231 -4.8125 68.25 C-12.22207115 53.10606842 -22.92134392 47.18407175 -38 40 C-35.3459157 36.82270912 -32.1611315 35.56718819 -28.4375 33.875 C-13.21512286 26.55730706 -6.47079718 15.06035095 0 0 Z " fill="#ED77AA" transform="translate(292,47)"/>
<path d="M0 0 C16 0 16 0 20.3125 2.0625 C26.59151416 8.9256085 26.46896994 15.57285563 26.375 24.5 C26.38660156 25.60214844 26.39820313 26.70429688 26.41015625 27.83984375 C26.3880163 33.98736886 26.05637875 38.61460187 23 44 C15.88812326 50.92472209 10.27747874 50 0 50 C0 33.5 0 17 0 0 Z " fill="#FF9D7F" transform="translate(357,183)"/>
<path d="M0 0 C0 16.5 0 33 0 50 C-15.86065574 50 -15.86065574 50 -20.49609375 45.5703125 C-26.10819115 39.17919875 -25.21631987 32.75810132 -25.25 24.6875 C-25.270625 23.46353516 -25.29125 22.23957031 -25.3125 20.97851562 C-25.31765625 19.79322266 -25.3228125 18.60792969 -25.328125 17.38671875 C-25.3374707 16.30608154 -25.34681641 15.22544434 -25.35644531 14.11206055 C-24.79436609 9.20464695 -23.08647917 5.9804812 -19.4375 2.6875 C-12.38966408 -2.19177102 -12.61309822 0 0 0 Z " fill="#FF9D7F" transform="translate(156,183)"/>
<path d="M0 0 C0.98935547 -0.01998047 1.97871094 -0.03996094 2.99804688 -0.06054688 C7.50062016 -0.05751892 10.26430404 -0.04783523 14.171875 2.328125 C18.91201486 7.61671079 18.0625 10.88376891 18.0625 18.4375 C6.1825 18.4375 -5.6975 18.4375 -17.9375 18.4375 C-17.9375 7.9375 -17.9375 7.9375 -14.9375 3.4375 C-10.39609126 -0.70368667 -5.8585416 -0.04181957 0 0 Z " fill="#7068F3" transform="translate(257.9375,103.5625)"/>
<path d="M0 0 C1.48542875 1.87633105 2.85351704 3.7300118 3.99609375 5.8359375 C6.83581379 10.96512041 9.88351944 13.67977523 14.9140625 16.67578125 C16.91174925 17.94397565 18.40301446 19.26569405 20 21 C19.00419922 21.54527344 19.00419922 21.54527344 17.98828125 22.1015625 C9.67175854 26.83651703 5.52237238 31.62523632 1 40 C-1.29272697 37.8729325 -2.82582052 35.77096479 -4.375 33.0625 C-8.0302352 27.11186412 -13.01196364 24.28754938 -19 21 C-16.76247705 18.57007858 -14.45471821 16.99777586 -11.625 15.3125 C-5.60186827 11.38522224 -3.1098553 6.27549276 0 0 Z " fill="#FD66B2" transform="translate(334,38)"/>
<path d="M0 0 C0.33 0 0.66 0 1 0 C1 12.21 1 24.42 1 37 C-2 33 -2 33 -3.875 30 C-7.60216386 24.73812162 -12.45898813 22.04212416 -18 19 C-15.76247705 16.57007858 -13.45471821 14.99777586 -10.625 13.3125 C-5.25866775 9.82525804 -2.79940416 5.59880832 0 0 Z " fill="#FF8F8C" transform="translate(333,40)"/>
<path d="M0 0 C0.33 0 0.66 0 1 0 C1 12.21 1 24.42 1 37 C-3.72995792 30.69338945 -3.21536435 26.46509203 -3.25 18.75 C-3.270625 17.61691406 -3.29125 16.48382813 -3.3125 15.31640625 C-3.34022904 9.40318883 -3.35445295 4.97871438 0 0 Z " fill="#FF78A1" transform="translate(333,40)"/>
<path d="M0 0 C9.375 5.17578125 9.375 5.17578125 12 7 C12 7.99 12 8.98 12 10 C11.38511719 10.33773437 10.77023437 10.67546875 10.13671875 11.0234375 C9.32847656 11.46945313 8.52023437 11.91546875 7.6875 12.375 C6.88699219 12.81585938 6.08648437 13.25671875 5.26171875 13.7109375 C3.46472057 14.73513335 1.72099292 15.85267138 0 17 C0 11.39 0 5.78 0 0 Z " fill="#C865CC" transform="translate(341,50)"/>
<path d="M0 0 C4.50781078 5.63476348 4.50781078 5.63476348 4.53125 9.46875 C4.53640625 10.28730469 4.5415625 11.10585938 4.546875 11.94921875 C4.53140625 12.79097656 4.5159375 13.63273437 4.5 14.5 C4.51546875 15.34175781 4.5309375 16.18351562 4.546875 17.05078125 C4.54171875 17.86933594 4.5365625 18.68789063 4.53125 19.53125 C4.52673828 20.26923828 4.52222656 21.00722656 4.51757812 21.76757812 C4 24 4 24 0 29 C0 19.43 0 9.86 0 0 Z " fill="#E664BE" transform="translate(337,44)"/>
<path d="M0 0 C2.97 1.65 5.94 3.3 9 5 C5.89448334 8.10551666 4.10801767 8.81323934 0 10 C0 6.7 0 3.4 0 0 Z " fill="#AD66D8" transform="translate(345,53)"/>
<path d="M0 0 C0 2.97 0 5.94 0 9 C-2.64 7.68 -5.28 6.36 -8 5 C-3 0 -3 0 0 0 Z " fill="#FFBE61" transform="translate(323,54)"/>
<path d="M0 0 C0 4.29 0 8.58 0 13 C-0.99 12.34 -1.98 11.68 -3 11 C-3.29296875 8.6171875 -3.29296875 8.6171875 -3.1875 5.875 C-3.16042969 4.96492188 -3.13335937 4.05484375 -3.10546875 3.1171875 C-3.07066406 2.41851562 -3.03585937 1.71984375 -3 1 C-1 0 -1 0 0 0 Z " fill="#FFA479" transform="translate(326,52)"/>
<path d="M0 0 C1.98 0.99 3.96 1.98 6 3 C3.94766315 5.2477975 2.99332739 6.0022242 0 7 C0 4.69 0 2.38 0 0 Z " fill="#9067E5" transform="translate(348,55)"/>
</svg>
